<?xml version="1.0" encoding="UTF-8" standalone="no"?>
<svg width="546px" height="85px" viewBox="0 0 546 85" version="1.1" xmlns="http://www.w3.org/2000/svg" xmlns:xlink="http://www.w3.org/1999/xlink">
    <!-- Generator: Sketch 39.1 (31720) - http://www.bohemiancoding.com/sketch -->
    <title>Logo</title>
    <desc>Created with Sketch.</desc>
    <defs>
        <polygon id="path-1" points="84.9157 0.13 0.0447 0.13 0.0447 84.9999 84.9157 84.9999 84.9157 0.13"></polygon>
    </defs>
    <g id="login/register-etc." stroke="none" stroke-width="1" fill="none" fill-rule="evenodd">
        <g id="1-Welcome-Screen" transform="translate(-102.000000, -428.000000)">
            <g id="Logo" transform="translate(102.000000, 427.000000)">
                <path d="M501.458,8.6148 C524.738,8.6148 545.949,22.4508 545.949,44.1508 C545.949,65.8228 524.935,79.7558 501.616,79.7558 L462.787,79.7558 L462.789,8.6148 L501.458,8.6148 Z M501.616,70.0278 C522.142,70.0278 536.227,58.1898 536.227,44.1508 C536.227,30.1488 522.031,18.3418 501.458,18.3418 L472.567,18.3418 L472.567,70.0278 L501.616,70.0278 Z" id="Fill-1" fill="#031934"></path>
                <path d="M360.4043,72.4317 C355.4333,67.9767 315.1283,32.0437 306.5043,24.3627 L306.4313,79.3867 L296.5593,79.3867 C296.5593,79.3867 296.4853,61.2907 296.4493,44.1687 C296.4303,35.6057 296.4603,8.9287 296.4603,8.9287 C296.4603,8.9287 297.0683,8.9467 297.5213,8.9467 C303.4193,8.9467 306.2933,11.2487 311.8103,16.0407 C316.7183,20.3057 355.4613,54.8527 363.9173,62.3997 L363.7503,8.4857 L373.6313,8.4857 C373.6313,8.4857 373.6573,26.6917 373.6753,43.9327 C373.6853,52.5507 373.6493,79.3907 373.6493,79.3907 L372.6603,79.3867 C368.4253,79.3867 365.9133,77.3757 360.4043,72.4317" id="Fill-3" fill="#031934"></path>
                <g id="Group-7" transform="translate(0.000000, 7.870100)" fill="#031934">
                    <path d="M43.3169,0.8184 C54.9949,0.8184 71.8529,4.5754 71.8529,20.9474 C71.8529,27.8564 66.6629,32.7034 59.9899,35.6054 C66.9409,38.0264 72.8549,43.9054 72.8549,51.7044 C72.8549,67.8234 54.4449,71.8204 42.8779,71.8204 L-9.99999993e-05,71.8204 L-9.99999993e-05,0.8184 L43.3169,0.8184 Z M9.8699,62.0934 L42.8779,62.0934 C49.1409,62.0934 63.1279,60.5594 63.1279,51.7044 C63.1279,45.1614 56.5889,41.0584 44.3199,41.0584 L9.8699,41.0634 L9.8699,62.0934 Z M41.8749,31.3354 C50.4849,31.3354 62.1199,29.4224 62.1199,20.9474 C62.1199,14.4224 55.6189,10.5454 43.3169,10.5454 L9.8699,10.5454 L9.8699,31.3354 L41.8749,31.3354 Z" id="Fill-5"></path>
                </g>
                <g id="Group-10" transform="translate(140.000000, 0.870100)">
                    <mask id="mask-2" fill="white">
                        <use xlink:href="#path-1"></use>
                    </mask>
                    <g id="Clip-9"></g>
                    <path d="M78.0957,57.2959 C75.8317,62.4059 77.5587,67.4889 72.4847,72.5779 C67.3917,77.6549 62.3237,75.9149 57.2457,78.1609 C52.0327,80.1799 49.6797,84.9949 42.4907,84.9999 C35.2807,84.9949 32.9287,80.1799 27.7537,78.1789 C22.6387,75.9149 17.5547,77.6429 12.4677,72.5639 C7.3887,67.4769 9.1267,62.4059 6.8847,57.3339 C4.8657,52.1149 0.0507,49.7649 0.0447,42.5719 C0.0507,35.3699 4.8657,33.0129 6.8657,27.8369 C9.1297,22.7219 7.4017,17.6429 12.4807,12.5499 C17.5687,7.4719 22.6387,9.2149 27.7167,6.9639 C32.9287,4.9539 35.2807,0.1339 42.4717,0.1299 C49.6797,0.1339 52.0327,4.9539 57.2127,6.9499 C62.3237,9.2149 67.4067,7.4869 72.4937,12.5649 C77.5767,17.6529 75.8317,22.7219 78.0767,27.7999 C80.0917,33.0129 84.9157,35.3699 84.9157,42.5549 C84.9157,49.7649 80.0917,52.1149 78.0957,57.2959 L78.0957,57.2959 Z M10.7337,31.4879 L15.3547,40.8779 C17.0977,40.4199 18.5667,41.2989 18.9277,42.7439 C19.2187,43.9139 18.6957,45.0919 17.7257,45.6919 L26.2467,63.0129 C26.7687,64.0519 28.0767,64.3429 29.2227,64.3429 L55.5907,64.3429 C57.2677,64.3429 58.0487,64.0519 58.5667,63.0129 L67.0737,45.7209 C66.0707,45.1339 65.5307,43.9319 65.8257,42.7439 C66.1857,41.2989 67.6517,40.4199 69.0977,40.7769 L74.0287,31.5849 L73.1137,29.9679 C72.1617,31.2299 70.9427,32.7039 69.4267,34.2969 C64.2177,39.7779 59.0197,39.9119 59.0197,39.9119 C59.0197,39.9119 63.0537,42.6439 61.7187,46.7269 C60.0357,51.8579 54.1627,51.2609 53.4887,51.1319 C52.1567,50.8669 47.3287,49.3989 47.2087,44.7079 C47.0737,39.2089 53.0537,38.5259 53.0537,38.5259 C53.0537,38.5259 48.3447,37.4949 46.0897,29.9439 C44.0387,23.0769 43.7837,17.6569 43.7837,17.6569 L43.2897,17.5329 L43.2897,35.2259 C44.3807,35.5679 45.1287,36.5579 45.1287,37.7639 C45.1287,39.2559 43.9177,40.4619 42.4257,40.4619 C40.9377,40.4619 39.7267,39.2559 39.7267,37.7639 C39.7267,36.6079 40.5217,35.6099 41.5427,35.2259 L41.5427,17.5329 L41.0297,17.6529 C41.0297,17.6529 40.7747,23.0769 38.7237,29.9439 C36.4687,37.4949 31.7607,38.5259 31.7607,38.5259 C31.7607,38.5259 37.7397,39.2089 37.6047,44.7079 C37.4897,49.3989 32.6567,50.8669 31.3257,51.1319 C30.6507,51.2609 24.7777,51.8579 23.0947,46.7269 C21.7597,42.6439 25.7937,39.9119 25.7937,39.9119 C25.7937,39.9119 20.5917,39.7779 15.3867,34.2969 C13.8387,32.6719 12.6007,31.1639 11.6447,29.8889 L10.7337,31.4879 Z" id="Fill-8" fill="#A7986D" mask="url(#mask-2)"></path>
                </g>
            </g>
        </g>
    </g>
</svg>